<svg width="10" height="6" viewBox="0 0 10 6" fill="none" xmlns="http://www.w3.org/2000/svg">
<path opacity="0.5" d="M9.61328 0.359375C9.47786 0.234375 9.32161 0.171875 9.14453 0.171875C8.96745 0.171875 8.8112 0.234375 8.67578 0.359375L5.14453 3.90625L1.61328 0.359375C1.47786 0.234375 1.32161 0.171875 1.14453 0.171875C0.967448 0.171875 0.811198 0.234375 0.675781 0.359375C0.540365 0.494792 0.472656 0.651042 0.472656 0.828125C0.472656 1.00521 0.540365 1.16146 0.675781 1.29688L4.67578 5.29688C4.7487 5.36979 4.82682 5.42188 4.91016 5.45312C5.00391 5.48438 5.08203 5.5 5.14453 5.5C5.20703 5.5 5.27995 5.48438 5.36328 5.45312C5.45703 5.42188 5.54036 5.36979 5.61328 5.29688L9.61328 1.29688C9.7487 1.16146 9.81641 1.00521 9.81641 0.828125C9.81641 0.651042 9.7487 0.494792 9.61328 0.359375Z" fill="white"/>
</svg>
