<svg width="49" height="44" viewBox="0 0 49 44" fill="white" xmlns="http://www.w3.org/2000/svg">
<path d="M17.5966 30.1697C20.5155 29.3414 23.2599 27.7976 26.5551 28.1836C26.3256 28.4566 26.1788 28.6448 26.0227 28.8142C23.829 31.2146 21.5251 33.4925 19.0469 35.5916C16.8072 37.4931 14.2739 38.312 11.4101 38.0767C10.3454 37.992 9.2898 37.7943 8.23423 37.606C7.92216 37.5495 7.7294 37.5872 7.52747 37.8413C6.17818 39.5922 4.81054 41.3336 3.47962 43.1032C3.21343 43.4515 2.98396 43.5268 2.59845 43.4421C1.99265 43.3197 1.3685 43.235 0.762695 43.1409C1.35014 42.4726 1.9743 41.7477 2.61681 41.0324C6.23326 36.9848 9.83134 32.9183 13.4753 28.899C18.184 23.7218 23.315 19.0153 28.7213 14.6194C30.8508 12.8874 32.9711 11.1554 35.1006 9.42341C35.174 9.36694 35.2382 9.30104 35.275 9.1975C24.5082 16.4361 14.6961 24.8043 6.12311 34.8386C5.912 32.7489 6.06804 30.8098 6.6922 28.9084C7.32553 26.9787 8.71153 25.595 10.0057 23.9948C9.99656 25.2655 10.1985 26.3669 11.0338 27.3646C11.1439 26.6587 11.2173 26.0374 11.3367 25.435C11.8782 22.7711 13.1449 20.5214 15.1459 18.7611C17.1927 16.9538 19.3039 15.2313 21.3783 13.471C21.4333 13.4993 21.4792 13.5369 21.5343 13.5651C21.4333 14.4688 21.3232 15.363 21.2222 16.2667C21.2498 16.2761 21.2773 16.2855 21.3048 16.2949C21.6261 15.6643 21.9657 15.0336 22.2686 14.3935C23.0305 12.8121 24.1503 11.579 25.6281 10.6659C30.0798 7.90792 34.7977 5.73351 39.6349 3.81325C39.6716 3.79442 39.7175 3.80384 39.8276 3.79442C39.5431 4.50981 39.2677 5.19696 39.0016 5.8747C39.0199 5.88411 39.0474 5.90294 39.0658 5.91235C39.5706 5.35699 40.0388 4.75455 40.5895 4.24625C41.1494 3.72853 41.7277 3.1261 42.4161 2.85312C44.3711 2.05301 46.3905 1.3941 48.3731 0.678711C48.4006 0.725776 48.4282 0.772841 48.4465 0.819906C48.2997 0.951689 48.1528 1.08347 47.9968 1.20584C44.6282 4.02034 41.5441 7.12663 39.0199 10.7601C37.6798 12.6897 36.5875 14.7983 35.3392 16.7938C34.2561 18.5258 33.1271 20.2296 31.9798 21.9239C30.3092 24.3901 27.9778 25.7927 25.1049 26.301C22.9478 26.6869 21.0478 27.6753 19.2855 28.9837C18.7256 29.3979 18.1565 29.7744 17.5966 30.1697Z" stroke="white" stroke-miterlimit="10" stroke-linejoin="round"/>
</svg>
